# xmcd
#
# Track frame offsets: 
#        150
#        22797
#        45580
#        65405
#        83560
#        102087
#        123965
#        146815
#        166282
#        188572
#        211817
#        232492
#
# Disc length: 3356 seconds
#
# Revision: 3
# Processed by: cddbd v1.5.2PL0 Copyright (c) Steve Scherf et al.
# Submitted via: ExactAudioCopy v0.99pb4
#
DISCID=990d1a0c
DTITLE=LSG - Levert Sweat Gill
DYEAR=1997
DGENRE=R&B
TTITLE0=Door #1
TTITLE1=Round and Round
TTITLE2=You Got Me (feat. The Lox)
TTITLE3=Where Did I Go Wrong (feat. JD)
TTITLE4=My Body
TTITLE5=All The Times (feat. Faith Evans, Coko and Missy Elliott)
TTITLE6=My Side Of The Bed
TTITLE7=Curious (feat. LL Cool J, Busta Rhymes and MC Lyte)
TTITLE8=Let A Playa Get His Freak On (feat. Jazze Pha)
TTITLE9=Love Hurts
TTITLE10=Drove Me To Tears
TTITLE11=Where Would We Go
EXTD=
EXTT0=
EXTT1=
EXTT2=
EXTT3=
EXTT4=
EXTT5=
EXTT6=
EXTT7=
EXTT8=
EXTT9=
EXTT10=
EXTT11=
PLAYORDER=
